<?xml version="1.0" encoding="utf-8"?>
<!-- Generator: Adobe Illustrator 16.0.3, SVG Export Plug-In . SVG Version: 6.00 Build 0)  -->
<!DOCTYPE svg PUBLIC "-//W3C//DTD SVG 1.1//EN" "http://www.w3.org/Graphics/SVG/1.1/DTD/svg11.dtd">
<svg version="1.1" id="Layer_1" xmlns="http://www.w3.org/2000/svg" xmlns:xlink="http://www.w3.org/1999/xlink" x="0px" y="0px"
	 width="296.203px" height="17.299px" viewBox="0 0 296.203 17.299" enable-background="new 0 0 296.203 17.299"
	 xml:space="preserve">
<g>
	<polygon fill="#F5D183" points="129.846,2.422 132.198,7.19 136.395,7.18 133.121,10.371 133.893,14.877 129.846,12.75 
		125.798,14.877 126.572,10.371 123.298,7.18 127.486,7.19 	"/>
	<polygon fill="#F5D183" points="147.886,2.422 150.238,7.19 154.435,7.18 151.161,10.371 151.933,14.877 147.886,12.75 
		143.838,14.877 144.612,10.371 141.338,7.18 145.526,7.19 	"/>
	<polygon fill="#F5D183" points="165.926,2.422 168.278,7.19 172.475,7.18 169.201,10.371 169.973,14.877 165.926,12.75 
		161.879,14.877 162.653,10.371 159.378,7.18 163.566,7.19 	"/>
	<polygon fill="#F5D183" points="183.966,2.422 186.318,7.19 190.515,7.18 187.241,10.371 188.013,14.877 183.966,12.75 
		179.919,14.877 180.693,10.371 177.418,7.18 181.606,7.19 	"/>
	<polygon fill="#F5D183" points="111.806,2.422 114.158,7.19 118.355,7.18 115.081,10.371 115.853,14.877 111.806,12.75 
		107.758,14.877 108.532,10.371 105.258,7.18 109.446,7.19 	"/>
	<rect x="3.734" y="7.947" fill="#F5D183" width="93" height="1.406"/>
	<rect x="199.468" y="7.947" fill="#F5D183" width="93" height="1.406"/>
</g>
</svg>
